<?xml version="1.0" encoding="UTF-8"?>
<svg width="300px" height="50px" viewBox="0 0 300 50" version="1.1" xmlns="http://www.w3.org/2000/svg" xmlns:xlink="http://www.w3.org/1999/xlink">
    <title>logo-white</title>
    <g id="Homepage" stroke="none" stroke-width="1" fill="none" fill-rule="evenodd">
        <g id="Group" fill="#FFFFFF" fill-rule="nonzero">
            <g id="logo-white">
                <g id="Group" transform="translate(0.000000, 12.014563)">
                    <path d="M15.7276236,23.9158981 L6.09782871,2.07779126 L0.0535585042,2.07779126 L0.0535585042,37.2007282 L5.82484922,37.2007282 C5.82484922,37.2007282 5.81604343,15.8976942 5.80217129,15.3841019 C6.19457177,16.3669903 15.5646562,37.2248786 15.5646562,37.2248786 C15.5646562,37.2248786 25.0396864,16.3708738 25.4316043,15.3918689 C25.4182147,15.9029126 25.4119421,37.2008495 25.4119421,37.2008495 L31.4234017,37.2008495 L31.4234017,2.07512136 L25.1363088,2.07512136 M56.0910736,14.071966 C55.160193,12.8449029 53.9835947,11.8684466 52.5794934,11.1549757 C51.1594692,10.4315534 49.5045838,10.0768204 47.6353438,10.0768204 C45.9290712,10.0768204 44.3486128,10.3807039 42.9097708,10.9974515 C41.471532,11.607767 40.2361882,12.5066748 39.2199035,13.6841019 C38.2007238,14.8628641 37.4120627,16.3137136 36.8476478,18.0212379 C36.2757539,19.7402913 35.9971049,21.7098301 35.9971049,23.9324029 C35.9971049,26.0927184 36.2940893,28.0317961 36.8989144,29.7508495 C37.4973462,31.4622573 38.3189385,32.9182039 39.3697226,34.109466 C40.412304,35.2958738 41.6477684,36.2049757 43.0518697,36.8165049 C44.4471653,37.4269417 45.924608,37.7359223 47.4708082,37.7359223 L47.4904704,37.7359223 C49.4746683,37.7359223 51.2048251,37.434466 52.6703257,36.8191748 C54.114234,36.2100728 55.4273824,35.3492718 56.599035,34.239199 L56.9490953,33.9048544 L53.3603136,30.006432 L53.0102533,30.2783981 C52.2001206,30.9026699 51.3761158,31.3808252 50.5337756,31.7228155 C49.7079614,32.0533981 48.792883,32.2237864 47.7792521,32.2237864 C47.060193,32.2237864 46.3809409,32.0940534 45.7205066,31.8410194 C45.0759952,31.5918689 44.4901086,31.2065534 43.9474065,30.6790049 C43.418456,30.1627427 42.9659831,29.4901699 42.6001206,28.6584951 C42.2916767,27.9668689 42.0661037,27.1390777 41.9283474,26.1726942 L58.6313631,26.1726942 L58.6850422,25.7480583 C58.7197829,25.473301 58.7512666,25.1376214 58.7861279,24.7308252 C58.8183353,24.306068 58.834172,23.8623786 58.834172,23.3932039 C58.8373945,21.6320388 58.6098914,19.9423544 58.1630881,18.3337379 C57.7112183,16.7216019 57.0243667,15.2963592 56.0910736,14.071966 Z M42.0289505,21.0561893 C42.2904704,19.3396845 42.8416164,18.0337379 43.6586248,17.109466 C44.5522316,16.0973301 45.7206273,15.5950243 47.2960193,15.5887136 C48.2774427,15.5887136 49.0875754,15.7527913 49.7320869,16.0566748 C50.4006031,16.371966 50.9460796,16.7890777 51.3845597,17.3167476 C51.825573,17.8493932 52.1572979,18.4737864 52.384801,19.1998786 C52.5661037,19.7847087 52.6944511,20.4040049 52.7721351,21.0561893 L42.0289505,21.0561893 Z M89.9372738,10.0754443 C88.9021713,10.078034 87.9827503,10.1696602 87.1751508,10.3628641 C86.3758745,10.5510922 85.6510253,10.8206311 84.9931242,11.1677184 C84.3402895,11.5174757 83.746924,11.934466 83.2149578,12.4240291 C82.8534379,12.7558252 82.5045838,13.1194175 82.1685163,13.5137136 C81.5018094,12.4900485 80.6612786,11.6788835 79.6585042,11.1029126 C78.4445115,10.4061893 76.9287093,10.078034 75.1264174,10.0754443 C73.735585,10.0754443 72.4761158,10.3553398 71.3664656,10.9199029 C70.6979493,11.2593447 70.0987937,11.6878641 69.5775633,12.2003641 L69.6072376,10.6491505 L63.5881785,10.6491505 L63.5881785,37.2008495 L69.5991556,37.2008495 L69.5991556,21.7696602 C69.5991556,19.7542476 69.9839566,18.2487864 70.6930036,17.2342233 C71.3907117,16.2411408 72.417491,15.7440534 73.9872135,15.7350728 C75.5303981,15.7415049 76.5647768,16.2067961 77.2706876,17.1070388 C77.9607961,17.9819175 78.3803378,19.7086165 78.3752714,22.2593447 L78.3752714,37.2008495 L84.3862485,37.2008495 L84.3862485,21.7696602 C84.3862485,19.7542476 84.7741858,18.2487864 85.482509,17.2342233 C86.1775633,16.2411408 87.2045838,15.7440534 88.7743064,15.7350728 C90.3199035,15.7415049 91.355006,16.2067961 92.0583836,17.1070388 C92.7477684,17.9819175 93.1680338,19.7086165 93.1623643,22.2593447 L93.1623643,37.2008495 L99.1738239,37.2008495 L99.1738239,22.0303398 C99.1738239,18.1674757 98.4571773,15.2035194 96.9406514,13.1525485 C95.4136309,11.0927184 93.0153197,10.0679612 89.9372738,10.0754443 Z M123.45187,13.476699 C122.518577,12.3171117 121.408926,11.4512136 120.141255,10.8968447 C118.881785,10.3514563 117.533896,10.076699 116.117129,10.076699 C114.691556,10.076699 113.391677,10.3832524 112.249698,10.9973301 C111.449819,11.4296117 110.687575,11.9356796 109.960917,12.5166262 L109.960917,0.345873786 L104.042943,3.4368932 L104.042943,37.1688107 L109.958384,37.1688107 L109.958384,35.4332524 C110.552352,35.9355583 111.238118,36.3894417 112.012063,36.7950243 C113.210253,37.421966 114.506996,37.7384709 115.8731,37.7360575 L115.893366,37.7360575 C117.274065,37.7360575 118.604222,37.4588592 119.868637,36.9184466 C121.154644,36.3691748 122.283353,35.5196602 123.245597,34.396966 C124.216888,33.2678398 124.979011,31.8603155 125.545838,30.1870146 C126.115078,28.4972087 126.395657,26.5441748 126.395657,24.3216019 C126.395657,21.8472087 126.141616,19.7160194 125.626055,17.9195388 C125.110012,16.1330097 124.390953,14.6479369 123.45187,13.476699 Z M119.072014,30.2709951 C118.215802,31.4839806 117.049819,32.0677184 115.365259,32.0791262 C114.809168,32.0791262 114.261158,31.9837379 113.712786,31.7904126 C113.151628,31.5919903 112.629674,31.3416262 112.145718,31.0350728 C111.656574,30.7298544 111.213028,30.3890777 110.816767,30.0230583 C110.462244,29.6949029 110.160193,29.3707524 109.910615,29.0515777 L109.910615,18.6671117 C110.503981,17.9245146 111.246441,17.2543689 112.15392,16.651699 C113.082268,16.0364078 114.068637,15.7375 115.170808,15.7349515 C116.879493,15.7476942 118.08275,16.3770631 118.992039,17.7071602 C119.884922,19.0192961 120.387937,21.2826456 120.382315,24.4651699 C120.38456,27.1276699 119.917008,29.0631068 119.072014,30.2709951 Z M150.388179,14.071966 C149.457901,12.8449029 148.27877,11.8684466 146.877201,11.1549757 C145.454162,10.4315534 143.799759,10.0768204 141.930519,10.0768204 C140.224367,10.0768204 138.646441,10.3807039 137.2076,10.9974515 C135.769361,11.607767 134.53076,12.5066748 133.517732,13.6841019 C132.498432,14.8628641 131.709891,16.3137136 131.145476,18.0212379 C130.572979,19.7402913 130.294934,21.7098301 130.294934,23.9324029 C130.294934,26.0927184 130.589385,28.0317961 131.193486,29.7508495 C131.792521,31.4622573 132.61351,32.9182039 133.664294,34.109466 C134.7076,35.2958738 135.943064,36.2049757 137.352232,36.8165049 C138.744391,37.4269417 140.221834,37.7359223 141.765621,37.7359223 L141.785766,37.7359223 C143.77503,37.7359223 145.502171,37.434466 146.965621,36.8191748 C148.41146,36.2100728 149.722075,35.3492718 150.893727,34.239199 L151.243788,33.9048544 L147.65573,30.006432 L147.308203,30.2783981 C146.496743,30.9026699 145.671411,31.3808252 144.829192,31.7228155 C144.002654,32.0533981 143.090712,32.2237864 142.077081,32.2237864 C141.357901,32.2237864 140.676116,32.0940534 140.020748,31.8410194 C139.37117,31.5879854 138.785283,31.2065534 138.245115,30.6790049 C137.715561,30.1627427 137.263691,29.4901699 136.894692,28.6584951 C136.589505,27.9668689 136.364415,27.1402913 136.224849,26.1752427 L152.931001,26.1752427 L152.981544,25.7453883 C153.014355,25.4758495 153.048492,25.1376214 153.081303,24.7307039 C153.112907,24.3059466 153.131966,23.8622573 153.129312,23.3930825 C153.131846,21.6319175 152.906996,19.942233 152.458263,18.3336165 C152.005911,16.7216019 151.318335,15.2963592 150.388179,14.071966 Z M136.326659,21.0537621 C136.586369,19.3384709 137.139445,18.0338592 137.95392,17.1095874 C138.852473,16.0974515 140.015802,15.5951456 141.593124,15.588835 C142.574548,15.588835 143.382027,15.7529126 144.029192,16.0567961 C144.697708,16.3720874 145.240531,16.789199 145.679131,17.3168689 C146.120145,17.8495146 146.451387,18.4739078 146.67889,19.2 C146.860796,19.786165 146.991074,20.4027913 147.068034,21.0538835 L136.326659,21.0538835 L136.326659,21.0537621 Z M171.9,10.3628641 C171.175875,10.1696602 170.289867,10.0781394 169.228347,10.0781394 C167.894934,10.0756068 166.667793,10.3794903 165.573341,10.9923544 C164.937636,11.3484223 164.375151,11.7604369 163.891194,12.2257282 L163.891194,10.6134709 L157.880217,10.6134709 L157.880217,37.2008495 L163.894934,37.2008495 L163.894934,22.0786408 C163.891194,19.9591019 164.322195,18.4305825 165.100603,17.4580097 C165.886852,16.4700243 166.929433,15.9881068 168.403016,15.9779126 C169.213148,15.9779126 169.884198,16.0581311 170.408685,16.2043689 C170.955971,16.359466 171.485404,16.5718447 172.004946,16.8527913 L172.539566,17.1350728 L172.7,16.5514563 L174.104222,11.431068 L173.81725,11.2351942 C173.251146,10.8447816 172.609047,10.5535194 171.9,10.3628641 Z M195.693124,26.423301 C195.30772,25.5091019 194.720024,24.7042476 193.938842,24.0265777 C193.171773,23.356432 192.237756,22.7639563 191.136912,22.2451456 C190.056333,21.7365291 188.801327,21.2037621 187.370567,20.646966 C186.416405,20.2629854 185.64427,19.9183252 185.069119,19.6195388 C184.491556,19.323301 184.041737,19.0333738 183.720627,18.7753641 C183.399638,18.5082524 183.210133,18.2718447 183.127865,18.0912621 C183.028106,17.8764563 182.980097,17.6576456 182.980097,17.396966 C182.988902,16.8451456 183.169723,16.4637136 183.619542,16.0949029 C184.026538,15.7617718 184.808926,15.5379854 185.985404,15.540534 C187.165862,15.5430825 188.259107,15.7160194 189.275151,16.0541262 C190.288782,16.3936893 191.297346,16.9213592 192.299517,17.6447816 L192.733052,17.9588592 L195.398552,13.259466 L195.050905,13.0038835 C193.871773,12.1240291 192.513148,11.4195388 190.967431,10.8842233 C189.414113,10.3489078 187.799035,10.0768204 186.13076,10.0768204 C184.834138,10.0768204 183.624608,10.2307039 182.512425,10.5345874 C181.395296,10.8410194 180.415682,11.306432 179.586731,11.9305825 C178.75006,12.5599515 178.097949,13.361165 177.645476,14.3058252 C177.187937,15.2581311 176.966828,16.3427184 176.966828,17.5417476 C176.966828,18.5921117 177.099517,19.5304612 177.381303,20.359466 C177.661882,21.1910194 178.132087,21.9489078 178.776598,22.613835 C179.418697,23.275 180.236429,23.8701456 181.220869,24.4080097 C182.193969,24.9406553 183.365621,25.4849515 184.736912,26.0406553 C186.574548,26.7538835 188.002654,27.3998786 189.023884,27.9669903 C189.975513,28.5161408 190.339566,29.0998786 190.350905,29.8830097 C190.339566,31.3923544 189.246321,32.1692961 186.17889,32.2239078 C185.038963,32.2239078 183.857298,32.0242718 182.622437,31.6123786 C181.391435,31.2092233 180.199638,30.5963592 179.038239,29.775 L178.61351,29.473665 L175.835706,34.1095874 L176.195899,34.3728155 C177.533052,35.3493932 179.087575,36.151699 180.85187,36.781068 C182.630157,37.415534 184.424849,37.7384709 186.229554,37.7359373 L186.267431,37.7359373 C187.545115,37.7359373 188.773583,37.6012136 189.946562,37.332767 C191.144753,37.0632282 192.213872,36.6195388 193.142823,35.9951456 C194.078166,35.3657767 194.837636,34.5213592 195.405187,33.4850728 C195.985283,32.4196602 196.265862,31.1467233 196.263227,29.6859223 C196.263227,28.436165 196.078649,27.3464806 195.693124,26.423301 Z" id="Shape"></path>
                    <path d="M202.545718,37.3634709 L208.88263,37.3634709 L208.88263,22.1930825 L218.344994,22.1930825 L218.344994,15.868568 L208.880217,15.868568 L208.88263,8.2407767 L220.933293,8.2407767 L220.933293,1.91371359 L202.545718,1.91371359 L202.545718,37.3634709 Z M225.058504,37.3621359 L231.396743,37.3621359 L231.396743,10.0334951 L225.058504,13.298665 L225.058504,37.3621359 Z M251.416043,10.2052184 C250.670326,10.0081311 249.775513,9.91527575 248.703739,9.91527575 C247.346441,9.91274272 246.087696,10.2242718 244.970446,10.8510922 C244.439566,11.1474515 243.959349,11.4817961 243.532207,11.8555825 L243.532207,10.4518204 L237.193969,10.4518204 L237.193969,37.3634709 L243.532207,37.3634709 L243.532207,22.0773058 C243.529674,19.978034 243.956815,18.4878641 244.701206,17.5583738 C245.459469,16.611165 246.440169,16.1520631 247.878528,16.1406553 C248.679735,16.1406553 249.334499,16.2195388 249.839928,16.3632282 C250.372014,16.5120146 250.896502,16.7230583 251.404584,16.995267 L252.11725,17.3741505 L252.332207,16.5934466 L253.764053,11.3623786 L253.382388,11.1004854 C252.802292,10.6997573 252.141375,10.3997573 251.416043,10.2052184 Z M273.52316,23.9019417 C272.739566,23.2216019 271.793004,22.6228155 270.68082,22.0989078 C269.599035,21.5877427 268.340169,21.0512136 266.904463,20.4956311 C265.956574,20.1128641 265.186972,19.7683252 264.618215,19.473301 C264.044511,19.1808252 263.605911,18.8985437 263.298794,18.6468447 C262.985404,18.3924757 262.815923,18.1699029 262.751508,18.023665 C262.660555,17.8253641 262.617612,17.6333738 262.613752,17.3955097 C262.62509,16.8882282 262.778046,16.5716019 263.196381,16.2218447 C263.551508,15.9256068 264.303498,15.6980583 265.461158,15.7043689 C266.62509,15.7043689 267.704463,15.8746359 268.699035,16.2078883 C269.697467,16.543568 270.689626,17.061165 271.678046,17.7769417 L272.259349,18.2003641 L275.080217,13.2160194 L274.621472,12.8726942 C273.431001,11.9799757 272.054644,11.2705097 270.495054,10.7288835 C268.925332,10.1872573 267.292521,9.9125 265.606634,9.915139 C264.294692,9.91262136 263.07503,10.0677184 261.944029,10.376699 C260.809168,10.6881068 259.810736,11.1625 258.961279,11.8020631 C258.108203,12.4467233 257.437153,13.265534 256.974548,14.2319175 C256.505669,15.2110437 256.279493,16.3247573 256.281906,17.5416262 C256.281906,18.6059466 256.417129,19.5634709 256.701448,20.4076456 C256.989626,21.2697816 257.477443,22.0479369 258.137153,22.7281553 C258.791918,23.4058252 259.622195,24.0072816 260.618094,24.5514563 C261.601448,25.0879854 262.775513,25.6360437 264.15187,26.1941748 C265.986852,26.9036408 267.411218,27.5457524 268.418456,28.1116505 C269.339928,28.6456311 269.649457,29.1632282 269.66345,29.8816748 C269.652111,31.2662621 268.711701,31.9898058 265.654524,32.0610437 C264.532207,32.0610437 263.365621,31.8626214 262.151267,31.4583738 C260.934138,31.0603155 259.756212,30.456432 258.608685,29.6438107 L258.037394,29.2395631 L255.096381,34.1526699 L255.576598,34.5048544 C256.92509,35.4890777 258.49614,36.3015777 260.272979,36.9322816 C262.067551,37.5756068 263.879976,37.9 265.703739,37.9 C267.004222,37.9 268.259228,37.7650485 269.458625,37.490534 C270.6731,37.2171117 271.761399,36.7669903 272.706634,36.1287621 C273.668516,35.489199 274.444391,34.6220874 275.020748,33.564199 C275.62111,32.4694175 275.901689,31.1661408 275.901689,29.6872573 C275.901689,28.4183252 275.714596,27.310801 275.316405,26.3598301 C274.923402,25.4239078 274.316767,24.5974515 273.52316,23.9019417 Z M293.565139,31.0745146 C293.168396,31.3058252 292.647527,31.521966 292.003136,31.7205097 C291.376236,31.9188107 290.780941,32.0078883 290.203498,32.0116505 C289.350422,32.0116505 288.875151,31.8133495 288.660314,31.5768204 C288.460676,31.3975728 288.22304,30.7299757 288.233052,29.5894417 L288.233052,16.3377427 L294.533293,16.3377427 L294.533293,10.4495146 L288.233052,10.4495146 L288.233052,0.0637135922 L282.041496,3.39381068 L282.041496,10.4519417 L278.404222,10.4519417 L278.404222,16.3377427 L282.041496,16.3377427 L282.041496,30.4692961 C282.041496,32.8661408 282.56731,34.7504854 283.741375,36.0309466 C284.880097,37.2796117 286.48275,37.8987864 288.372014,37.8987864 L288.408565,37.8987864 C289.455006,37.8987864 290.421954,37.7881068 291.309047,37.5631068 C292.177322,37.3393204 292.954644,37.032767 293.629554,36.6399272 L293.905066,36.4771845 L293.94801,36.1618932 L294.697467,30.4209951 L293.565139,31.0745146 Z" id="Shape"></path>
                </g>
                <path d="M23.4586449,7.79830097 C23.4623643,3.59842233 19.880579,-0.0202669903 15.6991556,3.56208357e-05 C11.5127865,-0.00230582524 7.95247286,3.60740291 7.94740116,7.81225728 C7.94234017,12.0337379 11.5310012,15.6054612 15.7180941,15.6054612 C19.8881785,15.6054612 23.4845597,12.0019417 23.4586449,7.79830097" id="Path"></path>
                <path d="M299.976598,16.3212379 C299.976598,16.9098301 299.831242,17.4567961 299.539324,17.9627427 C299.2462,18.4688107 298.84801,18.8680825 298.341134,19.1631068 C297.835585,19.4555825 297.289626,19.603034 296.70193,19.603034 C296.118094,19.603034 295.572135,19.4554612 295.06538,19.1631068 C294.557298,18.8680825 294.157901,18.4688107 293.865983,17.9627427 C293.572859,17.4567961 293.427503,16.9074029 293.427503,16.3174757 C293.427503,15.7299757 293.572859,15.1807039 293.865983,14.6746359 C294.157901,14.1660194 294.557298,13.765534 295.062847,13.4718447 C295.568516,13.1781553 296.115682,13.0305825 296.702051,13.0305825 C297.289747,13.0305825 297.835706,13.1781553 298.341255,13.4718447 C298.84801,13.765534 299.2462,14.1661408 299.539445,14.6746359 C299.831242,15.1807039 299.976598,15.7299757 299.976598,16.3212379 Z M299.301689,16.3300971 C299.301689,15.6014563 299.048975,14.9824029 298.542099,14.473665 C298.036671,13.9650485 297.426176,13.710801 296.710856,13.710801 C295.989264,13.710801 295.37491,13.9650485 294.865621,14.4712379 C294.357539,14.9798544 294.102171,15.5913835 294.102171,16.3084951 C294.102171,16.7726942 294.21725,17.2049757 294.447286,17.603034 C294.675995,18.0009709 294.993124,18.3162621 295.397587,18.5502427 C295.803378,18.7815534 296.237998,18.898665 296.701809,18.898665 C297.163209,18.898665 297.596622,18.7815534 298.001086,18.5515777 C298.406755,18.3213592 298.724005,18.006068 298.955247,17.6093447 C299.186731,17.2126214 299.301689,16.7853155 299.301689,16.3300971 Z M295.347165,14.523301 L296.933172,14.523301 C297.266948,14.523301 297.512063,14.5601942 297.668758,14.6353155 C297.825452,14.7103155 297.950663,14.8271845 298.046683,14.9875 C298.142702,15.1476942 298.189505,15.342233 298.189505,15.568568 C298.189505,15.7604369 298.160434,15.9182039 298.102292,16.0402913 C298.044029,16.1622573 297.932931,16.2817961 297.77117,16.3989078 C297.902654,16.4725728 297.99228,16.556432 298.04029,16.6506068 C298.088299,16.7434466 298.118697,16.9075243 298.130157,17.1425971 C298.150302,17.5902913 298.16924,17.8508495 298.188299,17.923301 C298.205911,17.9958738 298.256454,18.0669903 298.339928,18.1319175 L297.441255,18.1319175 C297.402171,18.0339806 297.375513,17.9526699 297.364294,17.8865291 C297.352955,17.8203883 297.346562,17.7084951 297.344029,17.5470874 C297.335223,17.2291262 297.317491,17.0321602 297.29228,16.9582524 C297.267069,16.8832524 297.221472,16.8274272 297.157057,16.7904126 C297.093969,16.7523058 296.965018,16.7345874 296.770326,16.7345874 L296.133293,16.7345874 L296.133293,18.1319175 L295.347165,18.1319175 L295.347165,14.523301 L295.347165,14.523301 Z M296.133293,15.2162621 L296.133293,16.0720874 L296.791797,16.0720874 C297.045838,16.0720874 297.213872,16.0377427 297.296019,15.9690534 C297.379493,15.9003641 297.419903,15.7884709 297.419903,15.6371359 C297.419903,15.485801 297.379493,15.3764563 297.298673,15.3129854 C297.217732,15.2481796 297.049698,15.2162621 296.796984,15.2162621 L296.133293,15.2162621 L296.133293,15.2162621 Z" id="Shape"></path>
            </g>
        </g>
    </g>
</svg>