<svg xmlns="http://www.w3.org/2000/svg" viewBox="0 0 31.37 49.24"><defs><style>.cls-1{fill:#fff;}.cls-2{fill:#286295;}</style></defs><g id="Layer_2" data-name="Layer 2"><g id="Layer_1-2" data-name="Layer 1"><g id="Homepage"><g id="Group"><g id="logo-color"><g id="Group-2" data-name="Group"><path id="Shape" class="cls-1" d="M15.67,35.93,6,14.09H0V49.22H5.77s0-21.31,0-21.82c.39,1,9.76,21.84,9.76,21.84S25,28.39,25.38,27.41c0,.51,0,21.81,0,21.81h6V14.09H25.08"/></g><path id="Path" class="cls-2" d="M23.41,7.8A7.91,7.91,0,0,0,15.65,0,7.93,7.93,0,0,0,7.89,7.81a7.92,7.92,0,0,0,7.77,7.8A7.91,7.91,0,0,0,23.41,7.8"/></g></g></g></g></g></svg>
