<svg xmlns="http://www.w3.org/2000/svg" xmlns:xlink="http://www.w3.org/1999/xlink" viewBox="0 0 169.39 102.1"><defs><style>.cls-1{fill:none;}.cls-2{clip-path:url(#clip-path);}.cls-3{fill:white;}</style><clipPath id="clip-path" transform="translate(-1.04 -1.19)"><rect class="cls-1" width="172.37" height="103.29"/></clipPath></defs><g id="Layer_2" data-name="Layer 2"><g id="svg1758"><g id="g2485"><g id="g1924"><g class="cls-2"><g id="g398"><path id="path396" class="cls-3" d="M93.75,7.05c6.5,0,8.74,4.22,5.12,11.34L86.31,43.29,73.75,18.39c-3.63-7.12-1.4-11.34,5.1-11.34ZM106.44,83.1,92.23,55l18.85-37.22c5.48-10.61,6.82-11.22,16.09-11.22V1.19H45.44V6.56c9.27,0,10.74.61,16.11,11.22L80.4,55,66.18,83.1l-33.3-66C29,9.24,30,6.56,35.38,6.56h3.48V1.19H1V6.52l2,.12C15.19,7.37,16.05,8,21.66,19.24l42.57,84.05h3.54L86.31,66.68l18.55,36.61h3.53L151,19.24C156.57,8,157.43,7.29,169.63,6.56l.8,0V1.19H133.77V6.56h3.47c5.43,0,6.41,2.68,2.5,10.49Z" transform="translate(-1.04 -1.19)"/></g></g></g></g></g></g></svg>
