<svg viewBox="0 0 245 46" xmlns="http://www.w3.org/2000/svg" aria-label="Workhuman logo" role="img" class="css-1uuvco0"><path d="M6.27094 21.2053L9.15697 39.8766H10.2839L13.9478 21.6987H20.5005L24.0943 39.8766H25.2212L28.1842 21.2053H34.4537L29.8746 45.3724H19.9397L17.1911 30.5767L14.514 45.3724H4.50908L0 21.2053H6.27094Z" fill="#fff"></path><path d="M57.4277 33.2536C57.4277 40.723 54.7506 46.0072 46.5062 46.0072C38.2617 46.0072 35.5117 40.6474 35.5117 33.2536C35.5117 25.8599 38.1889 20.5716 46.5062 20.5716C54.8234 20.5716 57.4277 25.7156 57.4277 33.1835M50.9451 33.1835C50.9451 28.4628 50.0299 26.0674 46.5062 26.0674C42.9824 26.0674 42.0672 28.4628 42.0672 33.1835C42.0672 37.9043 42.9824 40.4412 46.5062 40.4412C50.0299 40.4412 50.9451 37.9043 50.9451 33.255" fill="#fff"></path><path d="M60.3136 21.2051H66.6546V23.7421C69.0357 22.3453 71.5957 21.2787 74.2641 20.5716V27.1242C71.7083 27.6368 69.1896 28.3196 66.7247 29.1678V45.3736H60.3837L60.3136 21.2051Z" fill="#fff"></path><path d="M100.335 45.3732V11.4829H106.676V22.3399C108.513 21.3662 110.525 20.7673 112.595 20.5781C119.218 20.5781 120.978 24.8054 120.978 32.2748V45.3732H114.637V32.4094C114.637 28.7455 114.144 26.4202 111.043 26.4202C109.581 26.4736 108.134 26.7346 106.746 27.1953V45.3732H100.335Z" fill="#fff"></path><path d="M144.653 21.2053V45.3724H138.312V44.0339C136.483 45.052 134.472 45.6984 132.392 45.9359C125.417 45.9359 124.009 41.9903 124.009 33.8173V21.1353H130.35V33.9589C130.35 38.2563 130.562 40.1597 133.662 40.1597C135.225 40.1365 136.773 39.8508 138.242 39.3145V21.2053H144.653Z" fill="#fff"></path><path d="M147.963 45.3782V21.2042H154.304V22.5428C156.034 21.5342 157.951 20.8871 159.939 20.6408C161.028 20.5854 162.116 20.7573 163.135 21.1456C164.154 21.5338 165.082 22.13 165.858 22.896C168.338 21.6298 171.043 20.8635 173.819 20.6408C180.302 20.6408 182.202 24.5163 182.202 32.3375V45.3782H175.861V32.4776C175.861 28.8137 175.368 26.4183 172.549 26.4183C171.034 26.5112 169.539 26.8194 168.11 27.3336C168.11 27.3336 168.322 30.9975 168.322 32.8308V45.3782H161.981V32.971C161.981 28.6021 161.629 26.4183 158.669 26.4183C157.222 26.4622 155.793 26.7479 154.441 27.2635V45.3782H147.963Z" fill="#fff"></path><path d="M208.486 45.3788V21.2048H214.827V22.5434C216.638 21.4866 218.658 20.8375 220.746 20.6414C227.369 20.6414 229.129 24.8687 229.129 32.3381V45.3788H222.788V32.4782C222.788 28.8143 222.295 26.4189 219.194 26.4189C217.724 26.4522 216.27 26.7381 214.897 27.2641V45.3788H208.486Z" fill="#fff"></path><path d="M234.606 45.9771C234.183 45.9771 233.801 45.8814 233.461 45.69C233.124 45.4957 232.856 45.2329 232.656 44.9014C232.459 44.57 232.36 44.1971 232.36 43.7829C232.36 43.3686 232.459 42.9971 232.656 42.6686C232.856 42.3371 233.124 42.0757 233.461 41.8843C233.801 41.6929 234.183 41.5971 234.606 41.5971C235.026 41.5971 235.406 41.6957 235.746 41.8929C236.086 42.0871 236.354 42.35 236.551 42.6814C236.751 43.01 236.851 43.3771 236.851 43.7829C236.851 44.1971 236.751 44.57 236.551 44.9014C236.354 45.2329 236.086 45.4957 235.746 45.69C235.409 45.8814 235.029 45.9771 234.606 45.9771ZM234.606 45.5957C234.934 45.5957 235.236 45.5214 235.51 45.3729C235.787 45.2214 236.009 45.01 236.174 44.7386C236.343 44.4643 236.427 44.1457 236.427 43.7829C236.427 43.4229 236.343 43.1086 236.174 42.84C236.009 42.5686 235.787 42.3586 235.51 42.21C235.236 42.0586 234.934 41.9829 234.606 41.9829C234.28 41.9829 233.979 42.0586 233.701 42.21C233.427 42.3586 233.206 42.5686 233.037 42.84C232.871 43.1086 232.789 43.4229 232.789 43.7829C232.789 44.1457 232.871 44.4643 233.037 44.7386C233.203 45.01 233.423 45.2214 233.697 45.3729C233.974 45.5214 234.277 45.5957 234.606 45.5957ZM233.783 44.9657V42.6086H234.743C235.006 42.6086 235.217 42.6714 235.377 42.7971C235.537 42.9229 235.617 43.0986 235.617 43.3243C235.617 43.4957 235.563 43.6371 235.454 43.7486C235.346 43.8571 235.207 43.9314 235.039 43.9714L235.741 44.9657H235.167L234.546 44.0614H234.259V44.9657H233.783ZM234.259 43.6757H234.674C234.817 43.6757 234.929 43.6486 235.009 43.5943C235.089 43.5371 235.129 43.4543 235.129 43.3457C235.129 43.2371 235.091 43.1529 235.017 43.0929C234.946 43.0329 234.841 43.0029 234.704 43.0029H234.259V43.6757Z" fill="#fff"></path><path d="M97.8659 21.2061H90.4681L83.2818 32.2679V11.4829H76.9394V45.3732H83.2805V34.3115L90.4667 45.3732H97.8645L90.1135 33.2546L97.8659 21.2061Z" fill="#fff"></path><path d="M205.245 21.2048H198.904V22.5434C197.093 21.4868 195.074 20.8377 192.986 20.6414C186.364 20.6414 184.672 26.9123 184.672 34.3102C184.672 41.708 186.362 46.0069 193.055 46.0069C195.126 45.8401 197.13 45.1886 198.903 44.1048V45.3788H205.314V21.2048H205.245ZM194.607 40.1565C191.506 40.1565 191.013 37.761 191.013 34.0972V30.8579C191.15 28.1093 191.928 26.4189 194.535 26.4189C196.005 26.4522 197.459 26.7381 198.833 27.2641V39.3126C197.46 39.8414 196.006 40.1274 194.535 40.1578" fill="#fff"></path><path d="M244.632 11.6938C244.61 9.63652 244.052 7.62058 243.013 5.84473L234.135 10.2136L236.106 0.49045C233.898 -0.163483 231.549 -0.163483 229.341 0.49045L231.315 10.2837L222.507 5.91482C221.468 7.69054 220.909 9.70649 220.887 11.7638L230.47 13.0323L224.762 18.667C226.602 19.0538 228.233 20.1078 229.341 21.6258L232.794 14.6499L236.881 23.0331C238.761 22.3332 240.433 21.1699 241.743 19.651L235.049 12.9567L244.632 11.6938Z" fill="#c1386a"></path></svg>
